%TF.GenerationSoftware,KiCad,Pcbnew,7.0.1*%
%TF.CreationDate,2023-03-28T01:42:18+03:00*%
%TF.ProjectId,top_controller,746f705f-636f-46e7-9472-6f6c6c65722e,rev?*%
%TF.SameCoordinates,Original*%
%TF.FileFunction,Soldermask,Top*%
%TF.FilePolarity,Negative*%
%FSLAX46Y46*%
G04 Gerber Fmt 4.6, Leading zero omitted, Abs format (unit mm)*
G04 Created by KiCad (PCBNEW 7.0.1) date 2023-03-28 01:42:18*
%MOMM*%
%LPD*%
G01*
G04 APERTURE LIST*
G04 Aperture macros list*
%AMRoundRect*
0 Rectangle with rounded corners*
0 $1 Rounding radius*
0 $2 $3 $4 $5 $6 $7 $8 $9 X,Y pos of 4 corners*
0 Add a 4 corners polygon primitive as box body*
4,1,4,$2,$3,$4,$5,$6,$7,$8,$9,$2,$3,0*
0 Add four circle primitives for the rounded corners*
1,1,$1+$1,$2,$3*
1,1,$1+$1,$4,$5*
1,1,$1+$1,$6,$7*
1,1,$1+$1,$8,$9*
0 Add four rect primitives between the rounded corners*
20,1,$1+$1,$2,$3,$4,$5,0*
20,1,$1+$1,$4,$5,$6,$7,0*
20,1,$1+$1,$6,$7,$8,$9,0*
20,1,$1+$1,$8,$9,$2,$3,0*%
G04 Aperture macros list end*
%ADD10C,1.778000*%
%ADD11RoundRect,0.225000X0.250000X-0.225000X0.250000X0.225000X-0.250000X0.225000X-0.250000X-0.225000X0*%
%ADD12RoundRect,0.225000X0.225000X0.250000X-0.225000X0.250000X-0.225000X-0.250000X0.225000X-0.250000X0*%
%ADD13RoundRect,0.243750X0.243750X0.456250X-0.243750X0.456250X-0.243750X-0.456250X0.243750X-0.456250X0*%
%ADD14R,1.473200X0.355600*%
%ADD15R,3.251200X5.029200*%
%ADD16RoundRect,0.250000X0.650000X-0.325000X0.650000X0.325000X-0.650000X0.325000X-0.650000X-0.325000X0*%
%ADD17C,2.800000*%
%ADD18RoundRect,0.200000X0.200000X0.275000X-0.200000X0.275000X-0.200000X-0.275000X0.200000X-0.275000X0*%
%ADD19RoundRect,0.200000X-0.275000X0.200000X-0.275000X-0.200000X0.275000X-0.200000X0.275000X0.200000X0*%
%ADD20RoundRect,0.150000X0.825000X0.150000X-0.825000X0.150000X-0.825000X-0.150000X0.825000X-0.150000X0*%
%ADD21C,3.000000*%
%ADD22C,1.654000*%
%ADD23RoundRect,0.243750X-0.243750X-0.456250X0.243750X-0.456250X0.243750X0.456250X-0.243750X0.456250X0*%
%ADD24RoundRect,0.225000X-0.225000X-0.250000X0.225000X-0.250000X0.225000X0.250000X-0.225000X0.250000X0*%
%ADD25RoundRect,0.200000X-0.200000X-0.275000X0.200000X-0.275000X0.200000X0.275000X-0.200000X0.275000X0*%
%ADD26RoundRect,0.243750X0.456250X-0.243750X0.456250X0.243750X-0.456250X0.243750X-0.456250X-0.243750X0*%
%ADD27R,1.700000X1.700000*%
%ADD28O,1.700000X1.700000*%
%ADD29R,4.500000X2.000000*%
%ADD30RoundRect,0.200000X0.275000X-0.200000X0.275000X0.200000X-0.275000X0.200000X-0.275000X-0.200000X0*%
%ADD31RoundRect,0.225000X-0.250000X0.225000X-0.250000X-0.225000X0.250000X-0.225000X0.250000X0.225000X0*%
%ADD32RoundRect,0.100000X-0.100000X0.625000X-0.100000X-0.625000X0.100000X-0.625000X0.100000X0.625000X0*%
%ADD33R,2.850000X1.650000*%
%ADD34RoundRect,0.250000X-0.362500X-1.425000X0.362500X-1.425000X0.362500X1.425000X-0.362500X1.425000X0*%
%ADD35RoundRect,0.075000X0.075000X-0.662500X0.075000X0.662500X-0.075000X0.662500X-0.075000X-0.662500X0*%
%ADD36RoundRect,0.075000X0.662500X-0.075000X0.662500X0.075000X-0.662500X0.075000X-0.662500X-0.075000X0*%
%ADD37RoundRect,0.250000X0.325000X0.650000X-0.325000X0.650000X-0.325000X-0.650000X0.325000X-0.650000X0*%
%ADD38C,0.650000*%
%ADD39R,0.600000X1.071260*%
%ADD40R,0.600000X1.099200*%
%ADD41R,0.300000X1.150000*%
%ADD42O,1.000000X2.100000*%
%ADD43O,1.000000X1.800000*%
%ADD44R,1.400000X2.100000*%
%ADD45RoundRect,0.250000X-0.650000X0.325000X-0.650000X-0.325000X0.650000X-0.325000X0.650000X0.325000X0*%
%ADD46RoundRect,0.243750X-0.456250X0.243750X-0.456250X-0.243750X0.456250X-0.243750X0.456250X0.243750X0*%
%ADD47RoundRect,0.250000X0.262500X0.450000X-0.262500X0.450000X-0.262500X-0.450000X0.262500X-0.450000X0*%
G04 APERTURE END LIST*
D10*
%TO.C,U6*%
X177040000Y-64922400D03*
X174500000Y-64922400D03*
X171960000Y-64922400D03*
%TD*%
D11*
%TO.C,C28*%
X89250000Y-64025000D03*
X89250000Y-62475000D03*
%TD*%
D12*
%TO.C,C3*%
X227800000Y-76750000D03*
X226250000Y-76750000D03*
%TD*%
D13*
%TO.C,D10*%
X50937500Y-32000000D03*
X49062500Y-32000000D03*
%TD*%
D14*
%TO.C,U3*%
X117180600Y-59418600D03*
X117180600Y-60079000D03*
X117180600Y-60714000D03*
X117180600Y-61374400D03*
X117180600Y-62034800D03*
X117180600Y-62669800D03*
X117180600Y-63330200D03*
X117180600Y-63965200D03*
X117180600Y-64625600D03*
X117180600Y-65286000D03*
X117180600Y-65921000D03*
X117180600Y-66581400D03*
X122819400Y-66581400D03*
X122819400Y-65921000D03*
X122819400Y-65286000D03*
X122819400Y-64625600D03*
X122819400Y-63965200D03*
X122819400Y-63330200D03*
X122819400Y-62669800D03*
X122819400Y-62034800D03*
X122819400Y-61374400D03*
X122819400Y-60714000D03*
X122819400Y-60079000D03*
X122819400Y-59418600D03*
D15*
X120000000Y-63000000D03*
%TD*%
D16*
%TO.C,C26*%
X183500000Y-66725000D03*
X183500000Y-63775000D03*
%TD*%
D12*
%TO.C,C7*%
X220775000Y-50750000D03*
X219225000Y-50750000D03*
%TD*%
D11*
%TO.C,C8*%
X231750000Y-55025000D03*
X231750000Y-53475000D03*
%TD*%
D17*
%TO.C,TP2*%
X211500000Y-78750000D03*
%TD*%
D18*
%TO.C,R10*%
X222075000Y-45500000D03*
X220425000Y-45500000D03*
%TD*%
D19*
%TO.C,R11*%
X232500000Y-66675000D03*
X232500000Y-68325000D03*
%TD*%
D17*
%TO.C,TP10*%
X105000000Y-49000000D03*
%TD*%
D20*
%TO.C,U7*%
X86475000Y-66405000D03*
X86475000Y-65135000D03*
X86475000Y-63865000D03*
X86475000Y-62595000D03*
X81525000Y-62595000D03*
X81525000Y-63865000D03*
X81525000Y-65135000D03*
X81525000Y-66405000D03*
%TD*%
D19*
%TO.C,R15*%
X151000000Y-37350000D03*
X151000000Y-39000000D03*
%TD*%
D13*
%TO.C,D12*%
X231437500Y-32000000D03*
X229562500Y-32000000D03*
%TD*%
D17*
%TO.C,TP19*%
X161600000Y-77100000D03*
%TD*%
D16*
%TO.C,C20*%
X127834300Y-58309300D03*
X127834300Y-55359300D03*
%TD*%
D21*
%TO.C,J4*%
X114920000Y-40130000D03*
X125080000Y-40130000D03*
D22*
X120000000Y-45210000D03*
X117460000Y-45210000D03*
%TD*%
D13*
%TO.C,D3*%
X190937500Y-32000000D03*
X189062500Y-32000000D03*
%TD*%
D23*
%TO.C,D13*%
X209062500Y-32000000D03*
X210937500Y-32000000D03*
%TD*%
D21*
%TO.C,J9*%
X194920000Y-40130000D03*
X205080000Y-40130000D03*
D22*
X200000000Y-45210000D03*
X197460000Y-45210000D03*
%TD*%
D24*
%TO.C,C6*%
X218750000Y-63250000D03*
X220300000Y-63250000D03*
%TD*%
D25*
%TO.C,R2*%
X229925000Y-82500000D03*
X231575000Y-82500000D03*
%TD*%
D26*
%TO.C,D1*%
X232500000Y-64437500D03*
X232500000Y-62562500D03*
%TD*%
D14*
%TO.C,U4*%
X57180600Y-59418600D03*
X57180600Y-60079000D03*
X57180600Y-60714000D03*
X57180600Y-61374400D03*
X57180600Y-62034800D03*
X57180600Y-62669800D03*
X57180600Y-63330200D03*
X57180600Y-63965200D03*
X57180600Y-64625600D03*
X57180600Y-65286000D03*
X57180600Y-65921000D03*
X57180600Y-66581400D03*
X62819400Y-66581400D03*
X62819400Y-65921000D03*
X62819400Y-65286000D03*
X62819400Y-64625600D03*
X62819400Y-63965200D03*
X62819400Y-63330200D03*
X62819400Y-62669800D03*
X62819400Y-62034800D03*
X62819400Y-61374400D03*
X62819400Y-60714000D03*
X62819400Y-60079000D03*
X62819400Y-59418600D03*
D15*
X60000000Y-63000000D03*
%TD*%
D24*
%TO.C,C5*%
X229975000Y-42250000D03*
X231525000Y-42250000D03*
%TD*%
D13*
%TO.C,D14*%
X177687500Y-57500000D03*
X175812500Y-57500000D03*
%TD*%
D17*
%TO.C,TP14*%
X141000000Y-58750000D03*
%TD*%
D21*
%TO.C,J1*%
X174920000Y-40130000D03*
X185080000Y-40130000D03*
D22*
X180000000Y-45210000D03*
X177460000Y-45210000D03*
%TD*%
D13*
%TO.C,D4*%
X170937500Y-32000000D03*
X169062500Y-32000000D03*
%TD*%
%TO.C,D9*%
X70937500Y-32000000D03*
X69062500Y-32000000D03*
%TD*%
D27*
%TO.C,J12*%
X229380000Y-48750000D03*
D28*
X231920000Y-48750000D03*
X234460000Y-48750000D03*
X237000000Y-48750000D03*
%TD*%
D17*
%TO.C,TP11*%
X85000000Y-49000000D03*
%TD*%
%TO.C,TP15*%
X234750000Y-39000000D03*
%TD*%
D21*
%TO.C,J7*%
X54920000Y-40130000D03*
X65080000Y-40130000D03*
D22*
X60000000Y-45210000D03*
X57460000Y-45210000D03*
%TD*%
D21*
%TO.C,J6*%
X74920000Y-40130000D03*
X85080000Y-40130000D03*
D22*
X80000000Y-45210000D03*
X77460000Y-45210000D03*
%TD*%
D17*
%TO.C,TP5*%
X183500000Y-55500000D03*
%TD*%
D19*
%TO.C,R26*%
X211000000Y-37175000D03*
X211000000Y-38825000D03*
%TD*%
D29*
%TO.C,Y1*%
X219500000Y-73300000D03*
X228000000Y-73300000D03*
%TD*%
D17*
%TO.C,TP6*%
X185000000Y-49000000D03*
%TD*%
D11*
%TO.C,C25*%
X65584300Y-58609300D03*
X65584300Y-57059300D03*
%TD*%
D19*
%TO.C,R20*%
X51000000Y-37350000D03*
X51000000Y-39000000D03*
%TD*%
D27*
%TO.C,J11*%
X229420000Y-45000000D03*
D28*
X231960000Y-45000000D03*
X234500000Y-45000000D03*
X237040000Y-45000000D03*
%TD*%
D16*
%TO.C,C12*%
X128750000Y-68475000D03*
X128750000Y-65525000D03*
%TD*%
D17*
%TO.C,TP8*%
X145000000Y-49000000D03*
%TD*%
D18*
%TO.C,R23*%
X197495000Y-65000000D03*
X195845000Y-65000000D03*
%TD*%
%TO.C,R4*%
X216000000Y-37000000D03*
X214350000Y-37000000D03*
%TD*%
D30*
%TO.C,R21*%
X202920000Y-63325000D03*
X202920000Y-61675000D03*
%TD*%
D21*
%TO.C,J5*%
X94920000Y-40130000D03*
X105080000Y-40130000D03*
D22*
X100000000Y-45210000D03*
X97460000Y-45210000D03*
%TD*%
D13*
%TO.C,D8*%
X90937500Y-32000000D03*
X89062500Y-32000000D03*
%TD*%
D18*
%TO.C,R25*%
X199495000Y-71250000D03*
X197845000Y-71250000D03*
%TD*%
D11*
%TO.C,C16*%
X149250000Y-64025000D03*
X149250000Y-62475000D03*
%TD*%
D17*
%TO.C,TP12*%
X65000000Y-49000000D03*
%TD*%
D31*
%TO.C,C10*%
X216000000Y-59975000D03*
X216000000Y-61525000D03*
%TD*%
D17*
%TO.C,TP3*%
X196750000Y-51000000D03*
%TD*%
D18*
%TO.C,R29*%
X173462500Y-57500000D03*
X171812500Y-57500000D03*
%TD*%
D13*
%TO.C,D5*%
X150937500Y-32000000D03*
X149062500Y-32000000D03*
%TD*%
D17*
%TO.C,TP22*%
X81000000Y-58750000D03*
%TD*%
D11*
%TO.C,C22*%
X125584300Y-58609300D03*
X125584300Y-57059300D03*
%TD*%
D32*
%TO.C,U2*%
X200335000Y-58690000D03*
X199685000Y-58690000D03*
X199035000Y-58690000D03*
X198385000Y-58690000D03*
X197735000Y-58690000D03*
X197085000Y-58690000D03*
X197085000Y-62990000D03*
X197735000Y-62990000D03*
X198385000Y-62990000D03*
X199035000Y-62990000D03*
X199685000Y-62990000D03*
X200335000Y-62990000D03*
D33*
X198710000Y-60840000D03*
%TD*%
D18*
%TO.C,R8*%
X215825000Y-32500000D03*
X214175000Y-32500000D03*
%TD*%
D19*
%TO.C,R18*%
X91000000Y-37350000D03*
X91000000Y-39000000D03*
%TD*%
D17*
%TO.C,TP17*%
X165700000Y-77100000D03*
%TD*%
D24*
%TO.C,C4*%
X236475000Y-70750000D03*
X238025000Y-70750000D03*
%TD*%
%TO.C,C9*%
X224475000Y-63250000D03*
X226025000Y-63250000D03*
%TD*%
D19*
%TO.C,R30*%
X217500000Y-48475000D03*
X217500000Y-50125000D03*
%TD*%
D16*
%TO.C,C11*%
X234000000Y-55975000D03*
X234000000Y-53025000D03*
%TD*%
D34*
%TO.C,R3*%
X220287500Y-67800000D03*
X226212500Y-67800000D03*
%TD*%
D31*
%TO.C,C23*%
X65584300Y-66809300D03*
X65584300Y-68359300D03*
%TD*%
D35*
%TO.C,U1*%
X221000000Y-61412500D03*
X221500000Y-61412500D03*
X222000000Y-61412500D03*
X222500000Y-61412500D03*
X223000000Y-61412500D03*
X223500000Y-61412500D03*
X224000000Y-61412500D03*
X224500000Y-61412500D03*
X225000000Y-61412500D03*
X225500000Y-61412500D03*
X226000000Y-61412500D03*
X226500000Y-61412500D03*
D36*
X227912500Y-60000000D03*
X227912500Y-59500000D03*
X227912500Y-59000000D03*
X227912500Y-58500000D03*
X227912500Y-58000000D03*
X227912500Y-57500000D03*
X227912500Y-57000000D03*
X227912500Y-56500000D03*
X227912500Y-56000000D03*
X227912500Y-55500000D03*
X227912500Y-55000000D03*
X227912500Y-54500000D03*
D35*
X226500000Y-53087500D03*
X226000000Y-53087500D03*
X225500000Y-53087500D03*
X225000000Y-53087500D03*
X224500000Y-53087500D03*
X224000000Y-53087500D03*
X223500000Y-53087500D03*
X223000000Y-53087500D03*
X222500000Y-53087500D03*
X222000000Y-53087500D03*
X221500000Y-53087500D03*
X221000000Y-53087500D03*
D36*
X219587500Y-54500000D03*
X219587500Y-55000000D03*
X219587500Y-55500000D03*
X219587500Y-56000000D03*
X219587500Y-56500000D03*
X219587500Y-57000000D03*
X219587500Y-57500000D03*
X219587500Y-58000000D03*
X219587500Y-58500000D03*
X219587500Y-59000000D03*
X219587500Y-59500000D03*
X219587500Y-60000000D03*
%TD*%
D19*
%TO.C,R17*%
X111000000Y-37350000D03*
X111000000Y-39000000D03*
%TD*%
D20*
%TO.C,U5*%
X146475000Y-66405000D03*
X146475000Y-65135000D03*
X146475000Y-63865000D03*
X146475000Y-62595000D03*
X141525000Y-62595000D03*
X141525000Y-63865000D03*
X141525000Y-65135000D03*
X141525000Y-66405000D03*
%TD*%
D24*
%TO.C,C30*%
X86025000Y-60350000D03*
X84475000Y-60350000D03*
%TD*%
D37*
%TO.C,C15*%
X197645000Y-67000000D03*
X194695000Y-67000000D03*
%TD*%
D38*
%TO.C,J10*%
X225390000Y-37105000D03*
X219610000Y-37105000D03*
D39*
X225700000Y-38219370D03*
D40*
X224900000Y-38205400D03*
D41*
X223750000Y-38180000D03*
X222750000Y-38180000D03*
X222250000Y-38180000D03*
X221250000Y-38180000D03*
D40*
X220100000Y-38205400D03*
D39*
X219300000Y-38219370D03*
X219300000Y-38219370D03*
D40*
X220100000Y-38205400D03*
D41*
X220750000Y-38180000D03*
X221750000Y-38180000D03*
X223250000Y-38180000D03*
X224250000Y-38180000D03*
D40*
X224900000Y-38205400D03*
D39*
X225700000Y-38219370D03*
D42*
X226820000Y-37605000D03*
D43*
X226820000Y-33425000D03*
D42*
X218180000Y-37605000D03*
D43*
X218180000Y-33425000D03*
%TD*%
D21*
%TO.C,J8*%
X34920000Y-40130000D03*
X45080000Y-40130000D03*
D22*
X40000000Y-45210000D03*
X37460000Y-45210000D03*
%TD*%
D17*
%TO.C,TP13*%
X45000000Y-49000000D03*
%TD*%
%TO.C,TP4*%
X183500000Y-60250000D03*
%TD*%
D13*
%TO.C,D7*%
X110937500Y-32000000D03*
X109062500Y-32000000D03*
%TD*%
D19*
%TO.C,R1*%
X208300000Y-47375000D03*
X208300000Y-49025000D03*
%TD*%
D24*
%TO.C,C2*%
X219475000Y-76750000D03*
X221025000Y-76750000D03*
%TD*%
D19*
%TO.C,R14*%
X171000000Y-37175000D03*
X171000000Y-38825000D03*
%TD*%
D26*
%TO.C,D2*%
X234750000Y-64437500D03*
X234750000Y-62562500D03*
%TD*%
D17*
%TO.C,TP16*%
X169800000Y-77100000D03*
%TD*%
D24*
%TO.C,C18*%
X144525000Y-60350000D03*
X146075000Y-60350000D03*
%TD*%
D18*
%TO.C,R22*%
X233025000Y-35000000D03*
X231375000Y-35000000D03*
%TD*%
D19*
%TO.C,R6*%
X222000000Y-40675000D03*
X222000000Y-42325000D03*
%TD*%
%TO.C,R13*%
X191000000Y-37175000D03*
X191000000Y-38825000D03*
%TD*%
%TO.C,R19*%
X71000000Y-37350000D03*
X71000000Y-39000000D03*
%TD*%
D17*
%TO.C,TP7*%
X165000000Y-49000000D03*
%TD*%
%TO.C,TP1*%
X216000000Y-78750000D03*
%TD*%
D11*
%TO.C,C13*%
X126500000Y-67025000D03*
X126500000Y-65475000D03*
%TD*%
D27*
%TO.C,J13*%
X211000000Y-52830000D03*
D28*
X211000000Y-50290000D03*
X211000000Y-47750000D03*
%TD*%
D18*
%TO.C,R7*%
X222075000Y-47500000D03*
X220425000Y-47500000D03*
%TD*%
D44*
%TO.C,SW1*%
X237750000Y-73450000D03*
X237750000Y-82550000D03*
X233250000Y-73450000D03*
X233250000Y-82550000D03*
%TD*%
D45*
%TO.C,C21*%
X67834300Y-67109300D03*
X67834300Y-70059300D03*
%TD*%
D17*
%TO.C,TP18*%
X157500000Y-77100000D03*
%TD*%
D46*
%TO.C,D11*%
X202920000Y-58312500D03*
X202920000Y-60187500D03*
%TD*%
D19*
%TO.C,R16*%
X131000000Y-37350000D03*
X131000000Y-39000000D03*
%TD*%
%TO.C,R12*%
X234750000Y-66675000D03*
X234750000Y-68325000D03*
%TD*%
D16*
%TO.C,C27*%
X167250000Y-64725000D03*
X167250000Y-61775000D03*
%TD*%
D24*
%TO.C,C1*%
X229975000Y-51750000D03*
X231525000Y-51750000D03*
%TD*%
D16*
%TO.C,C17*%
X151500000Y-63975000D03*
X151500000Y-61025000D03*
%TD*%
D17*
%TO.C,TP20*%
X153400000Y-77100000D03*
%TD*%
%TO.C,TP9*%
X125000000Y-49000000D03*
%TD*%
D37*
%TO.C,C14*%
X199670000Y-55000000D03*
X196720000Y-55000000D03*
%TD*%
D13*
%TO.C,D6*%
X130937500Y-32000000D03*
X129062500Y-32000000D03*
%TD*%
D16*
%TO.C,C29*%
X91500000Y-63975000D03*
X91500000Y-61025000D03*
%TD*%
D21*
%TO.C,J2*%
X154920000Y-40130000D03*
X165080000Y-40130000D03*
D22*
X160000000Y-45210000D03*
X157460000Y-45210000D03*
%TD*%
D37*
%TO.C,C19*%
X202395000Y-65250000D03*
X199445000Y-65250000D03*
%TD*%
D16*
%TO.C,C24*%
X67834300Y-58309300D03*
X67834300Y-55359300D03*
%TD*%
D27*
%TO.C,J14*%
X214750000Y-52845000D03*
D28*
X214750000Y-50305000D03*
X214750000Y-47765000D03*
%TD*%
D17*
%TO.C,TP21*%
X149300000Y-77100000D03*
%TD*%
D25*
%TO.C,R9*%
X214175000Y-35000000D03*
X215825000Y-35000000D03*
%TD*%
D19*
%TO.C,R5*%
X223500000Y-40675000D03*
X223500000Y-42325000D03*
%TD*%
D47*
%TO.C,R24*%
X201582500Y-69250000D03*
X199757500Y-69250000D03*
%TD*%
D21*
%TO.C,J3*%
X134920000Y-40130000D03*
X145080000Y-40130000D03*
D22*
X140000000Y-45210000D03*
X137460000Y-45210000D03*
%TD*%
M02*
