%TF.GenerationSoftware,KiCad,Pcbnew,7.0.1*%
%TF.CreationDate,2023-03-28T01:42:18+03:00*%
%TF.ProjectId,top_controller,746f705f-636f-46e7-9472-6f6c6c65722e,rev?*%
%TF.SameCoordinates,Original*%
%TF.FileFunction,Soldermask,Bot*%
%TF.FilePolarity,Negative*%
%FSLAX46Y46*%
G04 Gerber Fmt 4.6, Leading zero omitted, Abs format (unit mm)*
G04 Created by KiCad (PCBNEW 7.0.1) date 2023-03-28 01:42:18*
%MOMM*%
%LPD*%
G01*
G04 APERTURE LIST*
%ADD10C,1.778000*%
%ADD11C,2.800000*%
%ADD12C,3.000000*%
%ADD13C,1.654000*%
%ADD14R,1.700000X1.700000*%
%ADD15O,1.700000X1.700000*%
%ADD16C,0.650000*%
%ADD17O,1.000000X2.100000*%
%ADD18O,1.000000X1.800000*%
G04 APERTURE END LIST*
D10*
%TO.C,U6*%
X177040000Y-64922400D03*
X174500000Y-64922400D03*
X171960000Y-64922400D03*
%TD*%
D11*
%TO.C,TP2*%
X211500000Y-78750000D03*
%TD*%
%TO.C,TP10*%
X105000000Y-49000000D03*
%TD*%
%TO.C,TP19*%
X161600000Y-77100000D03*
%TD*%
D12*
%TO.C,J4*%
X114920000Y-40130000D03*
X125080000Y-40130000D03*
D13*
X120000000Y-45210000D03*
X117460000Y-45210000D03*
%TD*%
D12*
%TO.C,J9*%
X194920000Y-40130000D03*
X205080000Y-40130000D03*
D13*
X200000000Y-45210000D03*
X197460000Y-45210000D03*
%TD*%
D11*
%TO.C,TP14*%
X141000000Y-58750000D03*
%TD*%
D12*
%TO.C,J1*%
X174920000Y-40130000D03*
X185080000Y-40130000D03*
D13*
X180000000Y-45210000D03*
X177460000Y-45210000D03*
%TD*%
D14*
%TO.C,J12*%
X229380000Y-48750000D03*
D15*
X231920000Y-48750000D03*
X234460000Y-48750000D03*
X237000000Y-48750000D03*
%TD*%
D11*
%TO.C,TP11*%
X85000000Y-49000000D03*
%TD*%
%TO.C,TP15*%
X234750000Y-39000000D03*
%TD*%
D12*
%TO.C,J7*%
X54920000Y-40130000D03*
X65080000Y-40130000D03*
D13*
X60000000Y-45210000D03*
X57460000Y-45210000D03*
%TD*%
D12*
%TO.C,J6*%
X74920000Y-40130000D03*
X85080000Y-40130000D03*
D13*
X80000000Y-45210000D03*
X77460000Y-45210000D03*
%TD*%
D11*
%TO.C,TP5*%
X183500000Y-55500000D03*
%TD*%
%TO.C,TP6*%
X185000000Y-49000000D03*
%TD*%
D14*
%TO.C,J11*%
X229420000Y-45000000D03*
D15*
X231960000Y-45000000D03*
X234500000Y-45000000D03*
X237040000Y-45000000D03*
%TD*%
D11*
%TO.C,TP8*%
X145000000Y-49000000D03*
%TD*%
D12*
%TO.C,J5*%
X94920000Y-40130000D03*
X105080000Y-40130000D03*
D13*
X100000000Y-45210000D03*
X97460000Y-45210000D03*
%TD*%
D11*
%TO.C,TP12*%
X65000000Y-49000000D03*
%TD*%
%TO.C,TP3*%
X196750000Y-51000000D03*
%TD*%
%TO.C,TP22*%
X81000000Y-58750000D03*
%TD*%
%TO.C,TP17*%
X165700000Y-77100000D03*
%TD*%
D16*
%TO.C,J10*%
X225390000Y-37105000D03*
X219610000Y-37105000D03*
D17*
X226820000Y-37605000D03*
D18*
X226820000Y-33425000D03*
D17*
X218180000Y-37605000D03*
D18*
X218180000Y-33425000D03*
%TD*%
D12*
%TO.C,J8*%
X34920000Y-40130000D03*
X45080000Y-40130000D03*
D13*
X40000000Y-45210000D03*
X37460000Y-45210000D03*
%TD*%
D11*
%TO.C,TP13*%
X45000000Y-49000000D03*
%TD*%
%TO.C,TP4*%
X183500000Y-60250000D03*
%TD*%
%TO.C,TP16*%
X169800000Y-77100000D03*
%TD*%
%TO.C,TP7*%
X165000000Y-49000000D03*
%TD*%
%TO.C,TP1*%
X216000000Y-78750000D03*
%TD*%
D14*
%TO.C,J13*%
X211000000Y-52830000D03*
D15*
X211000000Y-50290000D03*
X211000000Y-47750000D03*
%TD*%
D11*
%TO.C,TP18*%
X157500000Y-77100000D03*
%TD*%
%TO.C,TP20*%
X153400000Y-77100000D03*
%TD*%
%TO.C,TP9*%
X125000000Y-49000000D03*
%TD*%
D12*
%TO.C,J2*%
X154920000Y-40130000D03*
X165080000Y-40130000D03*
D13*
X160000000Y-45210000D03*
X157460000Y-45210000D03*
%TD*%
D14*
%TO.C,J14*%
X214750000Y-52845000D03*
D15*
X214750000Y-50305000D03*
X214750000Y-47765000D03*
%TD*%
D11*
%TO.C,TP21*%
X149300000Y-77100000D03*
%TD*%
D12*
%TO.C,J3*%
X134920000Y-40130000D03*
X145080000Y-40130000D03*
D13*
X140000000Y-45210000D03*
X137460000Y-45210000D03*
%TD*%
M02*
