M48
; DRILL file {KiCad 7.0.1} date Tue 28 Mar 2023 01:42:03 AM EEST
; FORMAT={-:-/ absolute / inch / decimal}
; #@! TF.CreationDate,2023-03-28T01:42:03+03:00
; #@! TF.GenerationSoftware,Kicad,Pcbnew,7.0.1
; #@! TF.FileFunction,MixedPlating,1,2
FMAT,2
INCH
; #@! TA.AperFunction,Plated,PTH,ViaDrill
T1C0.0157
; #@! TA.AperFunction,Plated,PTH,ComponentDrill
T2C0.0236
; #@! TA.AperFunction,Plated,PTH,ComponentDrill
T3C0.0300
; #@! TA.AperFunction,Plated,PTH,ComponentDrill
T4C0.0350
; #@! TA.AperFunction,Plated,PTH,ComponentDrill
T5C0.0394
; #@! TA.AperFunction,Plated,PTH,ComponentDrill
T6C0.0430
; #@! TA.AperFunction,Plated,PTH,ComponentDrill
T7C0.0630
; #@! TA.AperFunction,NonPlated,NPTH,ComponentDrill
T8C0.0256
; #@! TA.AperFunction,NonPlated,NPTH,ComponentDrill
T9C0.0787
%
G90
G05
T1
X1.8504Y-1.2598
X1.9252Y-2.5118
X1.9252Y-2.5551
X1.9252Y-2.5984
X1.9528Y-2.6417
X2.0394Y-2.5236
X2.0709Y-2.5551
X2.1063Y-2.5866
X2.1339Y-2.6181
X2.1791Y-2.3386
X2.185Y-2.4528
X2.5197Y-2.6909
X2.5295Y-2.4311
X2.5295Y-2.4803
X2.5669Y-2.5768
X2.6476Y-1.2894
X2.7165Y-2.1142
X2.748Y-2.2047
X3.0118Y-2.7165
X3.0236Y-2.1772
X3.0236Y-2.8031
X3.4547Y-1.3091
X3.689Y-2.3976
X4.2323Y-1.3287
X4.3622Y-2.2244
X4.3937Y-2.752
X4.3937Y-2.9016
X4.4571Y-2.4796
X4.4606Y-2.4173
X4.4685Y-2.563
X4.4809Y-2.511
X4.5071Y-2.5403
X4.5079Y-2.5797
X4.5118Y-2.2047
X4.5374Y-2.6083
X4.5433Y-2.3366
X4.5512Y-2.752
X4.5512Y-2.9016
X4.8228Y-2.811
X4.872Y-2.7953
X4.8819Y-2.7461
X4.8917Y-2.4311
X4.8917Y-2.4803
X4.9114Y-2.7165
X4.9213Y-2.5591
X4.9508Y-2.6969
X4.9508Y-2.9035
X5.0Y-1.3386
X5.0787Y-2.1181
X5.1181Y-2.9035
X5.1575Y-2.5787
X5.185Y-2.2323
X5.3858Y-2.2598
X5.7677Y-1.3583
X6.0551Y-2.3996
X6.5453Y-1.378
X6.5827Y-2.3504
X6.8701Y-2.4744
X7.0866Y-2.2539
X7.1457Y-2.4902
X7.4409Y-1.4075
X7.6969Y-2.5098
X7.7067Y-2.3524
X7.7165Y-1.4862
X7.7323Y-2.7441
X7.7362Y-2.8051
X7.7657Y-1.4862
X7.7904Y-1.4469
X7.8051Y-1.4075
X7.815Y-1.3681
X7.8346Y-1.3287
X7.8543Y-1.2894
X7.8543Y-2.6476
X7.874Y-1.25
X7.8937Y-2.1063
X7.937Y-2.8071
X7.9373Y-2.1062
X7.9767Y-2.107
X7.9921Y-2.0374
X8.0157Y-2.1024
X8.0217Y-2.2343
X8.0315Y-2.0374
X8.0709Y-2.0374
X8.1102Y-2.0374
X8.1654Y-3.0354
X8.1811Y-2.4606
X8.189Y-2.2953
X8.1969Y-2.0591
X8.2116Y-1.5285
X8.2185Y-1.3386
X8.3622Y-2.4213
X8.4409Y-1.5217
X8.4547Y-2.3622
X8.5551Y-2.0394
X8.5965Y-1.5807
X8.6024Y-2.5512
X8.6654Y-1.6201
X8.6713Y-1.939
X8.7087Y-2.2923
X8.7205Y-1.9291
X8.7402Y-2.4921
X8.7535Y-2.3327
X8.7795Y-2.3031
X8.7795Y-2.3622
X8.8081Y-1.9744
X8.8091Y-3.0217
X8.8118Y-2.2736
X8.8183Y-2.1457
X8.8287Y-2.0079
X8.8484Y-1.3976
X8.8577Y-2.1457
X8.8583Y-1.9094
X8.874Y-2.5551
X8.897Y-2.1457
X8.9272Y-1.5748
X8.9409Y-2.5315
X8.9665Y-2.4803
X8.9961Y-1.6437
X8.9961Y-2.4114
X9.0197Y-2.4803
X9.0354Y-2.3819
X9.0573Y-2.3491
X9.0856Y-2.3219
X9.086Y-2.282
X9.1063Y-2.3937
X9.2047Y-2.3465
X9.2224Y-2.2697
X9.2402Y-1.3701
X9.3051Y-2.685
X9.3917Y-2.7283
T3
X1.5748Y-1.7799
X2.3622Y-1.7799
X3.1496Y-1.7799
X3.937Y-1.7799
X4.7244Y-1.7799
X5.5118Y-1.7799
X6.2992Y-1.7799
X7.0866Y-1.7799
X7.874Y-1.7799
T4
X1.4748Y-1.7799
X2.2622Y-1.7799
X3.0496Y-1.7799
X3.837Y-1.7799
X4.6244Y-1.7799
X5.4118Y-1.7799
X6.1992Y-1.7799
X6.9866Y-1.7799
X7.774Y-1.7799
T5
X8.3071Y-1.8799
X8.3071Y-1.9799
X8.3071Y-2.0799
X8.4547Y-1.8805
X8.4547Y-1.9805
X8.4547Y-2.0805
X9.0307Y-1.9193
X9.0323Y-1.7717
X9.1307Y-1.9193
X9.1323Y-1.7717
X9.2307Y-1.9193
X9.2323Y-1.7717
X9.3307Y-1.9193
X9.3323Y-1.7717
T6
X6.7701Y-2.556
X6.8701Y-2.556
X6.9701Y-2.556
T7
X1.7717Y-1.9291
X2.5591Y-1.9291
X3.189Y-2.313
X3.3465Y-1.9291
X4.1339Y-1.9291
X4.9213Y-1.9291
X5.5512Y-2.313
X5.7087Y-1.9291
X5.878Y-3.0354
X6.0394Y-3.0354
X6.2008Y-3.0354
X6.3622Y-3.0354
X6.4961Y-1.9291
X6.5236Y-3.0354
X6.685Y-3.0354
X7.2244Y-2.185
X7.2244Y-2.372
X7.2835Y-1.9291
X7.7461Y-2.0079
X8.3268Y-3.1004
X8.5039Y-3.1004
X9.2421Y-1.5354
T8
X8.6461Y-1.4608
X8.8736Y-1.4608
T9
X1.3748Y-1.5799
X1.7748Y-1.5799
X2.1622Y-1.5799
X2.5622Y-1.5799
X2.9496Y-1.5799
X3.3496Y-1.5799
X3.737Y-1.5799
X4.137Y-1.5799
X4.5244Y-1.5799
X4.9244Y-1.5799
X5.3118Y-1.5799
X5.7118Y-1.5799
X6.0992Y-1.5799
X6.4992Y-1.5799
X6.8866Y-1.5799
X7.2866Y-1.5799
X7.674Y-1.5799
X8.074Y-1.5799
T2
G00X8.5898Y-1.3317
M15
G01X8.5898Y-1.3002
M16
G05
G00X8.5898Y-1.5022
M15
G01X8.5898Y-1.4589
M16
G05
G00X8.9299Y-1.3317
M15
G01X8.9299Y-1.3002
M16
G05
G00X8.9299Y-1.5022
M15
G01X8.9299Y-1.4589
M16
G05
T0
M30
